<?xml version="1.0" encoding="utf-8"?>
<!-- Generator: Adobe Illustrator 17.0.0, SVG Export Plug-In . SVG Version: 6.00 Build 0)  -->
<!DOCTYPE svg PUBLIC "-//W3C//DTD SVG 1.1//EN" "http://www.w3.org/Graphics/SVG/1.1/DTD/svg11.dtd">
<svg version="1.1" id="图层_1" xmlns="http://www.w3.org/2000/svg" xmlns:xlink="http://www.w3.org/1999/xlink" x="0px" y="0px"
	 width="841.89px" height="595.28px" viewBox="0 0 841.89 595.28" enable-background="new 0 0 841.89 595.28" xml:space="preserve">
<g>
	<polygon fill="#8A7B44" points="428.548,76.843 406.188,207.041 428.548,207.041 	"/>
	<polygon fill="#B9AD75" points="428.548,31.758 450.908,207.041 428.548,207.041 	"/>
	<polygon fill="#9A8F6E" points="428.548,207.041 406.188,207.041 397.458,275.477 428.548,318.965 	"/>
	<polygon fill="#AEA375" points="385.102,372.337 428.275,413.029 397.45,275.537 	"/>
	<polygon fill="#9C966E" points="341.929,331.643 385.102,372.334 406.188,207.041 	"/>
	<polygon fill="#A39868" points="428.548,318.965 397.458,275.477 397.45,275.537 428.275,413.029 428.548,413.286 	"/>
	<polygon fill="#C6BB85" points="471.995,372.337 428.822,413.029 459.646,275.537 	"/>
	<polygon fill="#E2D391" points="515.167,331.643 471.995,372.334 450.908,207.041 	"/>
	<polygon fill="#B0A46F" points="428.548,318.965 459.639,275.477 459.646,275.537 428.822,413.029 428.548,413.286 	"/>
	<polygon fill="#CDBD82" points="428.548,207.538 428.548,318.965 459.639,275.477 459.507,274.448 	"/>
	<polygon fill="#AB9F6D" points="450.908,207.041 428.548,207.041 428.548,207.538 459.507,274.448 	"/>
	<polygon fill="#81774D" points="205.234,322.444 205.151,322.439 200.761,401.231 200.762,401.236 200.913,401.282 
		249.091,375.942 	"/>
	<polygon fill="#9E8F5D" points="341.929,331.642 205.234,322.444 249.091,375.942 200.913,401.282 239.81,413.286 240.165,413.286 
		342.07,331.776 	"/>
	<polygon fill="#AEA26E" points="240.165,413.286 304.855,413.286 341.891,331.92 	"/>
	<polygon fill="#B9AE78" points="342.07,331.776 341.891,331.92 304.855,413.286 428.275,413.286 	"/>
	<polygon fill="#5F5638" points="210.928,467.776 237.214,467.776 200.772,401.303 	"/>
	<polygon fill="#4B4327" points="239.81,413.286 200.762,401.236 200.772,401.303 237.194,467.74 240.001,413.286 	"/>
	<polygon fill="#70643A" points="240.001,413.286 237.194,467.74 237.214,467.776 354.782,467.776 240.111,413.286 	"/>
	<polygon fill="#E0D393" points="651.532,322.439 514.828,331.637 609.625,377.231 	"/>
	<polygon fill="#F4E69F" points="514.828,331.637 514.755,331.642 428.409,413.286 552.06,413.286 514.916,331.68 	"/>
	<polygon fill="#D1C086" points="552.06,413.286 616.606,413.286 514.977,331.814 	"/>
	<polygon fill="#B4A66D" points="655.922,401.236 655.923,401.231 651.533,322.439 651.532,322.439 609.625,377.231 514.916,331.68 
		514.977,331.814 616.606,413.286 616.874,413.286 	"/>
	<polygon fill="#4C4329" points="655.922,401.236 616.921,413.272 619.601,467.558 655.889,401.455 	"/>
	<polygon fill="#5C5231" points="655.889,401.455 619.481,467.776 645.756,467.776 	"/>
	<polygon fill="#796D42" points="428.409,467.776 502.466,467.776 428.409,413.483 	"/>
	<polygon fill="#706339" points="304.739,413.286 354.85,467.582 428.275,413.371 428.275,413.286 	"/>
	<polygon fill="#675B36" points="304.739,413.286 240.111,413.286 354.664,467.72 354.85,467.582 	"/>
	<polygon fill="#7A6F42" points="355.029,467.776 428.275,467.776 428.275,413.371 354.85,467.582 	"/>
	<polygon fill="none" stroke="#231815" stroke-width="0.1" stroke-miterlimit="10" points="354.664,467.72 354.782,467.776 
		355.029,467.776 354.85,467.582 	"/>
	<polygon fill="#695C34" points="615.998,413.286 552.014,413.286 502.599,467.76 	"/>
	<polygon fill="#70613E" points="552.014,413.286 428.409,413.286 428.409,413.483 502.466,467.776 502.565,467.776 502.599,467.76 
			"/>
	<polygon fill="#70643B" points="619.601,467.558 616.921,413.272 616.874,413.286 615.998,413.286 502.599,467.76 502.584,467.776 
		619.481,467.776 	"/>
	<polygon fill="none" stroke="#231815" stroke-width="0.1" stroke-miterlimit="10" points="502.565,467.776 502.584,467.776 
		502.599,467.76 	"/>
	<polygon fill="#D1C086" points="651.668,322.444 651.533,322.439 655.889,401.455 706.112,405.713 	"/>
	<polygon fill="#F4E69F" points="651.668,322.444 705.961,405.482 726.788,325.509 	"/>
	<polygon fill="#CDBD82" points="705.961,405.482 706.065,405.641 759.907,368.602 726.787,325.514 	"/>
	<polygon fill="#C6BB85" points="726.788,325.509 726.787,325.514 759.907,368.602 817.188,329.198 	"/>
	<polygon fill="#D1C086" points="817.188,329.198 817.188,329.198 759.956,368.568 817.188,386.895 	"/>
	<polygon fill="#B0A46F" points="706.065,405.641 706.112,405.713 741.129,408.681 741.206,408.659 759.947,368.575 	"/>
	<polygon fill="#9A8F6E" points="817.188,386.895 759.956,368.568 759.947,368.575 741.206,408.659 817.188,387.004 	"/>
	<polygon fill="#7A6F42" points="655.889,401.455 645.756,467.776 690.684,467.671 656.122,401.475 	"/>
	<polygon fill="#796D42" points="741.129,408.681 706.112,405.713 656.122,401.475 690.661,467.629 741.381,408.61 	"/>
	<polygon fill="#695C34" points="690.661,467.629 690.684,467.671 760.346,467.509 741.245,408.768 	"/>
	<polygon fill="#4C4329" points="741.296,408.708 741.245,408.768 760.346,467.509 817.188,467.376 817.188,467.345 	"/>
	<polygon fill="#8A7B44" points="817.188,387.004 741.381,408.61 741.296,408.708 741.419,408.802 817.188,429.73 	"/>
	<polygon fill="#706339" points="817.188,429.73 741.419,408.802 817.188,467.345 	"/>
	<polygon fill="#9C966E" points="205.157,322.444 205.292,322.439 200.936,401.455 150.713,405.713 	"/>
	<polygon fill="#F4E69F" points="205.157,322.444 150.864,405.482 130.037,325.509 	"/>
	<polygon fill="#E2D391" points="150.864,405.482 150.76,405.641 96.918,368.602 130.038,325.514 	"/>
	<polygon fill="#C6BB85" points="130.037,325.509 130.038,325.514 96.918,368.602 24.702,327.982 	"/>
	<polygon fill="#D1C086" points="24.702,327.982 96.869,368.568 24.702,391.847 	"/>
	<polygon fill="#C6BB85" points="150.76,405.641 150.713,405.713 115.696,408.681 115.619,408.659 96.878,368.575 	"/>
	<polygon fill="#9E8F5D" points="96.869,368.568 96.878,368.575 115.619,408.659 24.702,391.847 	"/>
	<polygon fill="#7A6F42" points="200.936,401.455 211.069,467.776 166.141,467.671 200.703,401.475 	"/>
	<polygon fill="#796D42" points="115.696,408.681 150.713,405.713 200.703,401.475 166.163,467.629 115.444,408.61 	"/>
	<polygon fill="#695C34" points="166.163,467.629 166.141,467.671 96.479,467.509 115.58,408.768 	"/>
	<polygon fill="#70643A" points="115.529,408.708 115.58,408.768 96.479,467.509 24.702,467.376 	"/>
	<polygon fill="#AEA26E" points="24.702,391.847 115.781,408.61 115.865,408.708 115.742,408.802 24.702,433.84 	"/>
	<polygon fill="#796D42" points="24.702,433.84 115.406,408.802 24.702,467.376 	"/>
</g>
</svg>
