<?xml version="1.0" encoding="utf-8"?>
<!-- Generator: Adobe Illustrator 17.0.0, SVG Export Plug-In . SVG Version: 6.00 Build 0)  -->
<!DOCTYPE svg PUBLIC "-//W3C//DTD SVG 1.1//EN" "http://www.w3.org/Graphics/SVG/1.1/DTD/svg11.dtd">
<svg version="1.1" id="图层_1" xmlns="http://www.w3.org/2000/svg" xmlns:xlink="http://www.w3.org/1999/xlink" x="0px" y="0px"
	 width="595.28px" height="841.89px" viewBox="0 0 595.28 841.89" enable-background="new 0 0 595.28 841.89" xml:space="preserve">
<g>
	<path fill="#E4660C" d="M277.076,327.433c8.722-9.527,18.027-18.628,18.737-18.601l-14.179,45.642L277.076,327.433z"/>
	<path fill="#D65E13" d="M310.715,327.426c-8.627-11.033-14.518-18.578-14.903-18.594l11.708,45.847L310.715,327.426z"/>
	<polygon fill="#E28110" points="295.813,308.832 281.634,354.474 295.813,371.062 307.521,354.679 	"/>
	<path fill="#F59E15" d="M244.083,369.908c11.274-15.956,24.27-32.95,32.993-42.475l4.558,27.041L244.083,369.908z"/>
	<path fill="#D34215" d="M342.033,370.129c-11.328-17.151-22.691-31.669-31.318-42.702l-3.194,27.253L342.033,370.129z"/>
	<polygon fill="#FCEC4E" points="281.634,354.474 244.083,369.908 233.204,426.891 267.817,403.376 	"/>
	<polygon fill="#F9B318" points="267.817,403.376 281.634,354.474 295.813,371.062 	"/>
	<polygon fill="#DE6111" points="307.521,354.679 320.523,403.61 295.813,371.062 	"/>
	<polygon fill="#EF8019" points="307.521,354.679 342.033,370.129 354.905,426.891 320.523,403.61 	"/>
	<path fill="#E4660C" d="M371.811,421.792c-8.488-18.364-18.45-34.514-29.778-51.663l12.872,56.763L371.811,421.792z"/>
	<path fill="#F2915A" d="M215.888,421.792c8.366-19.261,16.921-35.93,28.195-51.884l-10.879,56.984L215.888,421.792z"/>
	<path fill="#FCEC4E" d="M204.201,475.304c0-19.444,3.321-34.251,11.687-53.512l17.317,5.099L204.201,475.304z"/>
	<path fill="#F8B114" d="M387.42,475.414c-0.108-14.678-7.122-35.258-15.609-53.622l-16.906,5.099L387.42,475.414z"/>
	<polygon fill="#F8AE15" points="233.204,426.891 243.463,468.622 230.575,508.466 204.201,475.304 	"/>
	<polygon fill="#EEA068" points="354.905,426.891 348.16,468.692 361.219,508.585 387.42,475.414 	"/>
	<polygon fill="#F29012" points="233.204,426.891 267.817,403.376 243.463,468.622 	"/>
	<polygon fill="#F9BC6E" points="320.523,403.61 348.16,468.692 354.905,426.891 	"/>
	<path fill="#FFE969" d="M212.782,519.976c-5.404-12.241-8.581-27.023-8.581-44.673l26.374,33.162L212.782,519.976z"/>
	<path fill="#F18D0D" d="M234.719,549.419c-8.904-7.496-16.534-17.199-21.937-29.442l17.793-11.511L234.719,549.419z"/>
	<path fill="#E4660C" d="M379.057,520.123c5.379-12.239,8.492-27.028,8.364-44.709l-26.201,33.171L379.057,520.123z"/>
	<path fill="#E4660C" d="M357.094,549.52c8.936-7.476,16.583-17.16,21.962-29.397l-17.838-11.538L357.094,549.52z"/>
	<polygon fill="#F18D0D" points="230.575,508.466 260.903,514.897 243.463,468.622 	"/>
	<polygon fill="#FDED86" points="361.219,508.585 330.831,514.961 348.16,468.692 	"/>
	<polygon fill="#FCEC4E" points="230.575,508.466 260.903,514.897 271.053,546.463 234.719,549.419 	"/>
	<polygon fill="#E37E0E" points="361.219,508.585 330.831,514.961 320.626,546.492 357.094,549.52 	"/>
	<path fill="#EF7E1D" d="M264.3,565.623c-10.5-3.418-20.677-8.706-29.581-16.204l36.334-2.956L264.3,565.623z"/>
	<path fill="#EB6813" d="M295.811,570.58c-10.191,0-21.012-1.542-31.51-4.957l6.753-19.16L295.811,570.58z"/>
	<path fill="#F7A81F" d="M327.393,565.657c10.54-3.395,20.766-8.661,29.701-16.137l-36.469-3.028L327.393,565.657z"/>
	<path fill="#E76A0A" d="M327.393,565.657c-10.539,3.397-21.392,4.924-31.583,4.924l24.815-24.088L327.393,565.657z"/>
	<polygon fill="#F8AE15" points="295.811,570.58 271.053,546.463 295.812,528.11 320.626,546.492 	"/>
	<polygon fill="#ED751B" points="295.812,528.11 260.903,514.897 271.053,546.463 	"/>
	<polygon fill="#FCC523" points="320.626,546.492 295.812,528.11 330.831,514.961 	"/>
	<polygon fill="#FDED86" points="295.812,528.11 295.811,468.692 330.831,514.961 	"/>
	<polygon fill="#F2915A" points="330.831,514.961 295.811,468.692 348.16,468.692 	"/>
	<polygon fill="#FDCC5B" points="295.811,468.692 348.16,468.692 320.523,403.61 	"/>
	<polygon fill="#F8AE13" points="320.523,403.61 295.811,468.692 295.813,371.062 	"/>
	<polygon fill="#FDED86" points="295.813,371.062 295.811,468.692 267.817,403.376 	"/>
	<polygon fill="#FDF1A8" points="267.817,403.376 295.811,468.692 243.463,468.622 	"/>
	<polygon fill="#FDED86" points="243.463,468.622 295.811,468.692 260.903,514.897 	"/>
	<polygon fill="#FBEC51" points="295.811,468.692 295.812,528.11 260.903,514.897 	"/>
</g>
</svg>
