<?xml version="1.0" encoding="utf-8"?>
<!-- Generator: Adobe Illustrator 17.0.0, SVG Export Plug-In . SVG Version: 6.00 Build 0)  -->
<!DOCTYPE svg PUBLIC "-//W3C//DTD SVG 1.1//EN" "http://www.w3.org/Graphics/SVG/1.1/DTD/svg11.dtd">
<svg version="1.1" id="图层_1" xmlns="http://www.w3.org/2000/svg" xmlns:xlink="http://www.w3.org/1999/xlink" x="0px" y="0px"
	 width="595.28px" height="841.89px" viewBox="0 0 595.28 841.89" enable-background="new 0 0 595.28 841.89" xml:space="preserve">
<g>
	<polygon fill="#F8AE15" points="349.876,336.142 326.972,348.094 304.029,336.212 326.913,308.832 	"/>
	<path fill="#FCEC4E" d="M326.913,308.832c-10.844,0.018-21.166,3.327-30.551,9.304l7.667,18.075L326.913,308.832z"/>
	<path fill="#E3650E" d="M326.913,308.832c10.841-0.013,21.173,3.264,30.576,9.211l-7.613,18.098L326.913,308.832z"/>
	<path fill="#FDCC5B" d="M296.362,318.136c-9.387,5.974-17.834,14.613-24.924,25.278l32.591-7.203L296.362,318.136z"/>
	<path fill="#F2915A" d="M357.489,318.044c9.405,5.947,17.879,14.559,24.999,25.206l-32.612-7.108L357.489,318.044z"/>
	<polygon fill="#E4670D" points="304.029,336.212 299.241,371.136 326.972,348.094 	"/>
	<polygon fill="#F2915A" points="349.876,336.142 354.768,371.055 326.972,348.094 	"/>
	<polygon fill="#EF8019" points="304.029,336.212 299.241,371.136 272.768,388.493 271.438,343.414 	"/>
	<path fill="#F39813" d="M382.488,343.25c7.122,10.647,12.891,23.33,16.883,37.416l-18.076,7.667L382.488,343.25z"/>
	<path fill="#FDCC5B" d="M271.467,344.341l1.301,44.152l-18.1-7.613c3.95-14.096,9.68-26.795,16.77-37.465L271.467,344.341z"/>
	<path fill="#FDED86" d="M248.72,425.543l-0.158,1.195l24.205-38.245l-18.1-7.613c-3.954,14.099-6.13,29.595-6.105,45.858
		L248.72,425.543z"/>
	<polygon fill="#FCEC4E" points="272.768,388.493 287.827,426.679 299.241,371.136 	"/>
	<path fill="#ED7409" d="M399.371,380.665c3.997,14.085,6.215,29.577,6.242,45.838l-24.318-38.171L399.371,380.665z"/>
	<polygon fill="#F9B318" points="381.295,388.333 366.349,426.562 354.768,371.055 	"/>
	<polygon fill="#EF8019" points="350.147,516.976 327.204,505.091 304.297,517.044 327.263,544.353 	"/>
	<path fill="#F8AE13" d="M296.684,535.144l7.613-18.1l0.627,0.744l22.339,26.566v0.054c-10.841,0.016-21.173-3.264-30.58-9.209
		L296.684,535.144z"/>
	<path fill="#F29012" d="M271.686,509.935l32.612,7.108l-0.3,0.712l-7.313,17.388l-0.002,0.054
		c-9.403-5.949-17.877-14.561-24.996-25.208V509.935z"/>
	<path fill="#E0650F" d="M357.814,535.105c9.385-5.976,17.834-14.613,24.922-25.28v-0.054l-32.589,7.205l7.667,18.076V535.105z"/>
	<polygon fill="#E79217" points="304.297,517.044 299.41,482.132 327.204,505.091 	"/>
	<polygon fill="#E0650F" points="350.147,516.976 354.933,482.051 327.204,505.091 	"/>
	<polygon fill="#FBEC51" points="304.297,517.044 299.41,482.132 272.878,464.853 271.686,509.935 	"/>
	<polygon fill="#FBC033" points="350.147,516.976 354.933,482.051 381.408,464.693 382.736,509.771 	"/>
	<path fill="#FDCC5B" d="M382.736,509.771l-1.328-45.078l18.1,7.613v0.054c-3.952,14.099-9.683,26.798-16.773,37.465V509.771z"/>
	<path fill="#F8AE15" d="M271.686,509.935l1.166-44.017l0.027-1.066l-18.075,7.667v0.056c3.995,14.085,9.764,26.766,16.883,37.414
		V509.935z"/>
	<path fill="#FDED86" d="M248.562,426.684l24.316,38.169l-18.075,7.667v0.056c-3.995-14.085-6.215-29.577-6.24-45.838V426.684z"/>
	<polygon fill="#FFFFFF" points="272.878,464.853 287.825,426.625 299.41,482.132 	"/>
	<path fill="#FBEC51" d="M399.508,472.306l-18.1-7.613l24.205-38.241v0.052c0.023,16.261-2.153,31.76-6.105,45.856V472.306z"/>
	<polygon fill="#F39813" points="381.408,464.693 366.349,426.508 354.933,482.051 	"/>
	<polygon fill="#FDCC5B" points="287.825,426.625 272.768,388.493 248.562,426.684 272.88,464.907 	"/>
	<polygon fill="#F9B96E" points="381.295,388.333 366.349,426.508 381.41,464.744 405.613,426.452 	"/>
	<polygon fill="#FCEC4E" points="349.876,336.142 354.768,371.055 381.295,388.333 382.488,343.25 	"/>
	<path fill="#FCEC4E" d="M327.263,544.407c10.841-0.016,21.166-3.327,30.551-9.302l-7.667-18.13l-22.884,27.377V544.407z"/>
	<polygon fill="#FCEC4E" points="354.933,482.051 327.206,505.091 326.9,426.747 366.351,426.508 	"/>
	<polygon fill="#FDCC5B" points="354.768,371.055 326.972,348.094 327.089,426.621 366.351,426.562 	"/>
	<polygon fill="#FDED86" points="299.243,371.136 287.827,426.679 327.089,426.621 326.972,348.094 	"/>
	<polygon fill="#FDF1A8" points="327.206,505.091 327.089,426.621 287.827,426.679 299.41,482.132 	"/>
</g>
</svg>
